<svg width="70" height="80" viewBox="0 0 328 425" fill="none" xmlns="http://www.w3.org/2000/svg">
<path d="M87 353.5C87 354.328 85.8807 355 84.5 355C83.1193 355 82 354.328 82 353.5C82 352.672 83.1193 352 84.5 352C85.8807 352 87 352.672 87 353.5Z" fill="black"/>
<path d="M95.5 355C96.8807 355 98 354.328 98 353.5C98 352.672 96.8807 352 95.5 352C94.1193 352 93 352.672 93 353.5C93 354.328 94.1193 355 95.5 355Z" fill="black"/>
<path d="M245 354.5C245 355.328 243.881 356 242.5 356C241.119 356 240 355.328 240 354.5C240 353.672 241.119 353 242.5 353C243.881 353 245 353.672 245 354.5Z" fill="black"/>
<path d="M252.5 356C253.881 356 255 355.328 255 354.5C255 353.672 253.881 353 252.5 353C251.119 353 250 353.672 250 354.5C250 355.328 251.119 356 252.5 356Z" fill="black"/>
<path d="M242.5 364C243.881 364 245 363.328 245 362.5C245 361.672 243.881 361 242.5 361C241.119 361 240 361.672 240 362.5C240 363.328 241.119 364 242.5 364Z" fill="black"/>
<path d="M95.5 365C96.8807 365 98 364.328 98 363.5C98 362.672 96.8807 362 95.5 362C94.1193 362 93 362.672 93 363.5C93 364.328 94.1193 365 95.5 365Z" fill="black"/>
<path d="M252.5 364C253.881 364 255 363.328 255 362.5C255 361.672 253.881 361 252.5 361C251.119 361 250 361.672 250 362.5C250 363.328 251.119 364 252.5 364Z" fill="black"/>
<path d="M84.5 365C85.8807 365 87 364.328 87 363.5C87 362.672 85.8807 362 84.5 362C83.1193 362 82 362.672 82 363.5C82 364.328 83.1193 365 84.5 365Z" fill="black"/>
<path d="M212.845 227.04L208.141 230.411L205.778 226.344L202.32 228.354L204.875 232.751L198.33 237.441L200.66 240.693L206.893 236.226L210.073 241.698L213.531 239.688L210.159 233.885L215.175 230.291L212.845 227.04Z" fill="black"/>
<path fill-rule="evenodd" clip-rule="evenodd" d="M129.255 37.728C135.285 36.4423 140.345 36.0175 144.846 36.6971C152.173 37.8033 157.631 41.773 163.255 48.6326C165.378 51.2215 163.492 54.9759 160.245 54.9978C152.097 55.0527 145.87 54.3604 140.491 52.4792C135.62 50.7754 131.559 48.1373 127.44 44.3977C125.061 42.2375 126.175 38.3847 129.255 37.728ZM130.304 41.5945C133.321 44.3099 136.214 46.3052 139.408 47.7446C139.599 46.1162 139.854 44.6987 140.228 43.3701C140.523 42.3231 140.887 41.3525 141.333 40.3917C138.199 40.2884 134.602 40.6899 130.304 41.5945ZM144.479 43.2265C144.329 43.6291 144.197 44.0357 144.078 44.4554C143.903 45.0785 143.755 45.742 143.628 46.4781C144.171 45.9366 144.443 45.466 144.564 45.0378C144.69 44.589 144.697 44.0195 144.479 43.2265ZM145.883 49.8386C147.111 48.7713 148.007 47.569 148.414 46.1222C148.825 44.6635 148.679 43.1747 148.179 41.6443C152.352 43.1667 156.011 46.14 160.022 50.999C154.308 51.029 149.758 50.6727 145.883 49.8386Z" fill="black"/>
<path fill-rule="evenodd" clip-rule="evenodd" d="M218.215 49.1727C209.466 44.5044 202.377 42.3055 195.532 42.8164C194.977 42.8578 194.425 42.9169 193.875 42.9937C188.485 43.7462 183.398 46.1776 177.872 50.0148C174.945 52.0478 176.057 56.4263 179.41 57.0566C185.56 58.2132 190.821 58.9563 195.648 59.2082C196.168 59.2353 196.683 59.2568 197.194 59.2724C197.55 59.2833 197.904 59.2914 198.256 59.2967C205.016 59.3974 210.995 58.4463 217.608 56.2841C220.913 55.2033 221.224 50.7781 218.215 49.1727ZM200.714 50.0701C200.403 48.9317 199.926 47.8585 199.351 46.8197C204.113 47.2016 209.421 49.0383 216.088 52.5721C210.849 54.2616 206.079 55.1263 200.913 55.2791C201.249 53.4192 201.164 51.7165 200.714 50.0701ZM196.855 51.1244C197.151 52.206 197.227 53.3835 196.926 54.8267C196.476 53.623 196.2 52.5433 196.052 51.3973C195.953 50.6274 195.908 49.8065 195.916 48.874C196.339 49.6511 196.653 50.3842 196.855 51.1244ZM192.085 51.9093C192.223 52.9754 192.446 53.9801 192.756 54.9879C189.052 54.6465 184.994 54.0324 180.351 53.1635C184.567 50.2573 188.296 48.3761 191.958 47.4428C191.877 49.0802 191.907 50.5255 192.085 51.9093Z" fill="black"/>
<path d="M298.261 51.8741C302.239 51.9682 304.8 52.4291 306.836 53.3421C308.849 54.2449 310.534 55.6727 312.615 58.0578L315.629 55.4284C313.373 52.8423 311.238 50.9325 308.473 49.6923C305.73 48.4623 302.553 47.9745 298.355 47.8753L298.261 51.8741Z" fill="black"/>
<path d="M302.252 60.2272C300.514 59.1302 298.023 58.4085 293.847 57.9141L294.317 53.9419C298.657 54.4556 301.876 55.2599 304.387 56.8445C306.962 58.4694 308.565 60.7669 309.982 63.7524L306.369 65.468C305.113 62.8235 303.927 61.2839 302.252 60.2272Z" fill="black"/>
<path fill-rule="evenodd" clip-rule="evenodd" d="M192.062 118.209C191.474 118.024 190.851 117.977 190.242 118.071L182.437 119.289C181.195 119.482 180.116 120.248 179.524 121.357L178.341 123.575C177.013 126.063 178.608 129.107 181.409 129.432L188.318 130.233C188.93 130.304 189.55 130.233 190.13 130.025L192.801 129.066L197.703 127.695C201.534 126.623 201.622 121.224 197.829 120.028L192.062 118.209ZM190.859 122.024L196.625 123.842L191.585 125.253L188.779 126.26L181.87 125.458L183.053 123.241L190.859 122.024Z" fill="black"/>
<path fill-rule="evenodd" clip-rule="evenodd" d="M160.521 119.725C161.506 119.252 162.642 119.202 163.664 119.588L167.991 121.219C171.325 122.476 171.476 127.137 168.229 128.606L162.771 131.076C161.789 131.52 160.669 131.549 159.665 131.156L155.583 129.56C152.327 128.287 152.157 123.743 155.308 122.229L160.521 119.725ZM166.58 124.962L162.253 123.331L157.04 125.835L161.122 127.431L166.58 124.962Z" fill="black"/>
<path fill-rule="evenodd" clip-rule="evenodd" d="M147.726 127.486C149.33 124.878 147.528 121.508 144.468 121.394L125.533 120.687C122.564 120.576 120.515 123.626 121.74 126.333L123.452 130.118C124.129 131.615 125.653 132.545 127.295 132.464L143.108 131.678C144.425 131.613 145.626 130.902 146.317 129.778L147.726 127.486ZM125.384 124.684L144.319 125.391L142.91 127.683L127.096 128.469L125.384 124.684Z" fill="black"/>
<path fill-rule="evenodd" clip-rule="evenodd" d="M111.429 119.457C113.094 119.473 114.575 120.519 115.147 122.082L116.846 126.726C117.755 129.208 116.049 131.873 113.415 132.088L106.04 132.689C105.778 132.711 105.515 132.706 105.254 132.676L97.2859 131.751C96.3199 131.639 95.4279 131.179 94.7766 130.457L90.7273 125.967C88.3945 123.381 90.2529 119.255 93.7358 119.288L111.429 119.457ZM111.39 123.457L93.6977 123.288L97.747 127.778L105.715 128.702L113.09 128.101L111.39 123.457Z" fill="black"/>
<path d="M80.3227 393.407C80.3719 393.818 80.0925 394.193 79.6987 394.244C78.1294 394.449 77.0378 394.761 75.8661 395.764C75.0518 396.461 74.6562 397.316 74.6562 398.332C74.6562 398.746 74.3344 399.082 73.9375 399.082C73.5405 399.082 73.2187 398.746 73.2187 398.332C73.2187 396.837 73.8298 395.567 74.9542 394.605C76.4227 393.347 77.8207 392.977 79.5204 392.756C79.9142 392.704 80.2735 392.996 80.3227 393.407Z" fill="black"/>
<path fill-rule="evenodd" clip-rule="evenodd" d="M84 410C88.7635 410 92.625 406.642 92.625 402.5C92.625 398.358 88.7635 395 84 395C79.2365 395 75.375 398.358 75.375 402.5C75.375 406.642 79.2365 410 84 410ZM84 407C87.6887 407 89.75 404.496 89.75 402.5C89.75 400.504 87.6887 398 84 398C80.3113 398 78.25 400.504 78.25 402.5C78.25 404.496 80.3113 407 84 407Z" fill="black"/>
<path d="M99.4991 400.455C99.2107 400.171 98.7558 400.184 98.483 400.485C98.2103 400.786 98.2229 401.26 98.5113 401.545C98.8739 401.903 99.056 402.479 99.0885 403.247C99.1206 404.007 99.0013 404.82 98.8869 405.523C98.675 406.824 98.1656 408.315 97.5274 409.449C96.8769 410.605 96.0457 411.429 95.0061 412.455C94.7177 412.74 94.705 413.214 94.9778 413.515C95.2506 413.816 95.7055 413.829 95.9939 413.545L96.0343 413.505C97.0403 412.512 98.0075 411.558 98.7669 410.209C99.4974 408.911 100.064 407.246 100.304 405.774C100.418 405.077 100.564 404.119 100.525 403.181C100.485 402.252 100.258 401.204 99.4991 400.455Z" fill="black"/>
<path d="M247.537 391.976C247.11 391.942 246.601 392.101 246.001 392.288C245.49 392.448 244.982 392.568 244.496 392.678L244.281 392.727L244.28 392.727C243.865 392.82 243.468 392.91 243.071 393.019C242.784 393.098 242.621 393.197 242.49 393.318C242.342 393.454 242.202 393.646 241.988 393.983C241.769 394.329 241.323 394.423 240.992 394.195C240.661 393.966 240.57 393.501 240.789 393.156C241.006 392.814 241.235 392.473 241.539 392.193C241.86 391.897 242.233 391.698 242.706 391.568C243.137 391.45 243.569 391.353 243.983 391.259L244.19 391.212C244.674 391.103 245.135 390.993 245.588 390.851L245.686 390.821C246.199 390.659 246.941 390.425 247.645 390.48C248.087 390.515 248.482 390.658 248.815 390.803C248.967 390.869 249.116 390.94 249.252 391.005L249.292 391.024L249.383 391.067C249.414 391.082 249.444 391.096 249.474 391.11C249.556 391.148 249.634 391.183 249.711 391.216C250.08 391.369 250.259 391.806 250.111 392.19C249.964 392.575 249.546 392.762 249.177 392.608C249.008 392.538 248.844 392.46 248.694 392.388L248.657 392.37C248.517 392.303 248.389 392.243 248.262 392.187C247.984 392.066 247.754 391.993 247.537 391.976Z" fill="black"/>
<path fill-rule="evenodd" clip-rule="evenodd" d="M257.625 402.5C257.625 406.642 253.763 410 249 410C244.237 410 240.375 406.642 240.375 402.5C240.375 398.358 244.237 395 249 395C253.763 395 257.625 398.358 257.625 402.5ZM254.75 402.5C254.75 404.496 252.689 407 249 407C245.311 407 243.25 404.496 243.25 402.5C243.25 400.504 245.311 398 249 398C252.689 398 254.75 400.504 254.75 402.5Z" fill="black"/>
<path d="M263.799 399.787C264.08 399.494 264.535 399.494 264.815 399.787C265.585 400.591 265.815 401.71 265.855 402.711C265.896 403.725 265.746 404.763 265.628 405.527C265.382 407.127 264.798 408.938 264.047 410.35C263.265 411.819 262.268 412.859 261.223 413.949L261.185 413.989C260.904 414.282 260.449 414.282 260.168 413.989C259.888 413.696 259.888 413.221 260.168 412.929C261.243 411.807 262.111 410.898 262.79 409.622C263.456 408.371 263.987 406.727 264.209 405.289C264.327 404.52 264.453 403.619 264.419 402.774C264.385 401.916 264.191 401.257 263.799 400.848C263.518 400.555 263.518 400.08 263.799 399.787Z" fill="black"/>
<path d="M259.696 406.548C260.032 406.768 260.135 407.23 259.924 407.582C259.599 408.126 259.351 408.723 259.078 409.384L259.078 409.385L259.012 409.543C258.721 410.245 258.394 411.011 257.923 411.708C256.604 413.657 254.596 414.36 252.592 414.59C251.151 414.756 249.604 414.683 248.237 414.619C247.736 414.595 247.259 414.573 246.82 414.564C246.423 414.556 246.108 414.213 246.116 413.799C246.124 413.385 246.452 413.056 246.849 413.064C247.361 413.075 247.884 413.1 248.413 413.124C249.745 413.187 251.112 413.251 252.434 413.099C254.247 412.891 255.769 412.289 256.749 410.843C257.124 410.288 257.399 409.655 257.693 408.947L257.765 408.774C258.029 408.133 258.319 407.432 258.705 406.787C258.916 406.435 259.359 406.329 259.696 406.548Z" fill="black"/>
<path fill-rule="evenodd" clip-rule="evenodd" d="M93.8342 5.03959C93.2132 6.69106 92.6147 8.81389 92.0235 11.4114C87.4651 21.1244 83.7579 35.7216 81.2793 55.8698C81.1892 56.6021 81.1007 57.3418 81.0139 58.0891C79.6565 69.7684 78.6966 83.2838 78.2144 98.7749C78.1958 99.3714 78.1779 99.9709 78.1608 100.573C78.1003 102.698 78.0487 104.859 78.0062 107.057C77.9899 107.898 77.9749 108.744 77.9613 109.596C77.8389 117.261 77.8248 125.366 77.9275 133.926C77.9344 134.502 78.0638 135.048 78.2902 135.539C77.3426 142.957 76.6738 146.221 76.1723 148.669C76.0922 149.06 76.0164 149.43 75.9444 149.792C75.418 152.445 75.1068 154.668 74.8576 160.93C64.7231 165.128 56.5874 169.837 46.2555 177.155C46.2542 177.156 46.2497 177.159 46.2406 177.159C46.2315 177.16 46.2257 177.158 46.2232 177.157C41.3566 174.757 37.5976 173.276 34.3502 172.846C30.9538 172.397 28.2057 173.107 25.4437 174.802C25.2251 174.936 25.0178 175.095 24.8321 175.269C23.4567 176.557 22.4173 177.934 21.8356 179.487C21.2436 181.068 21.1799 182.687 21.5323 184.354C22.2035 187.528 24.4338 191.02 27.5063 195.185L27.5072 195.186C27.5106 195.192 27.5123 195.197 27.5125 195.203C27.5126 195.206 27.5123 195.209 27.5115 195.211C26.1745 199.924 25.3556 203.71 25.5651 206.798C25.6731 208.391 26.0551 209.849 26.8049 211.175C27.5534 212.5 28.6111 213.591 29.9298 214.533C30.566 214.987 31.3112 215.215 32.0498 215.231C35.3135 215.302 38.0697 214.735 40.7494 213.152C43.3571 211.611 45.7552 209.186 48.4679 205.82C48.4698 205.817 48.4717 205.815 48.4735 205.813L48.4774 205.81L48.481 205.808L48.4845 205.805L48.4894 205.803C48.4922 205.802 48.4954 205.801 48.4991 205.8L48.5031 205.799C48.5058 205.798 48.5087 205.797 48.5118 205.797L48.5166 205.796C48.5463 205.793 48.5702 205.8 48.5894 205.815C51.7077 208.197 54.3201 209.655 56.8574 210.085C59.5125 210.535 61.7798 209.815 64.0558 208.559C64.8141 208.141 65.4193 207.471 65.7498 206.65C67.0085 203.526 67.1683 200.631 66.075 197.953C65.0114 195.347 62.8787 193.24 60.1671 191.394C60.1214 191.363 60.0979 191.321 60.0903 191.287C64.1901 187.499 67.8889 185.077 72.1812 183.526C72.1357 197.546 74.6995 210.871 77.6364 222.496C78.957 227.722 80.3591 232.628 81.6348 237.091L81.8081 237.697L81.072 235.307C76.8858 236.596 73.3585 236.777 69.2751 235.648C65.0866 234.49 60.2174 231.929 53.4238 227.487C51.4085 226.169 48.6716 227.642 48.7421 230.1C48.8066 232.347 48.9423 234.784 50.6034 237.182C51.8571 238.993 53.8645 240.625 56.9428 242.28C52.5434 242.733 49.378 243.62 46.9338 245.595C45.9718 246.372 45.6878 247.565 45.9854 248.59C46.2732 249.582 47.0874 250.39 48.1811 250.634C54.963 252.148 59.7132 252.754 66.2861 252.844C65.5712 253.954 65.0376 255.088 64.8122 256.295C64.4653 258.151 64.895 259.893 65.8949 261.643C67.0475 263.66 69.629 263.411 70.7816 261.946C72.6182 259.612 74.2725 258.149 76.7018 257.248C78.8942 256.435 81.8623 256.026 86.3842 256.103C88.7004 266.371 91.8396 273.552 96.9239 280.205C99.3138 283.332 104.547 286.448 113.042 288.447L113.077 288.299C113.405 290.281 113.632 292.25 113.756 294.24C114.272 302.528 113.016 311.304 109.727 322.873C108.766 322.645 107.843 322.443 106.975 322.295C105.559 322.055 104.143 321.934 102.791 322.138C101.39 322.349 100.097 322.902 98.9591 323.932C97.8528 324.933 96.989 326.298 96.2736 327.989L96.2615 328.018L96.2503 328.047C95.1703 330.838 94.5201 333.497 95.4359 336.487C95.6915 337.322 96.0614 338.156 96.5491 339.005C71.5942 336.512 43.7495 333.052 12.1539 328.647C10.9965 328.485 9.80999 328.841 8.93305 329.632C6.05987 332.22 3.73244 334.658 2.18171 337.071C0.612409 339.513 -0.235226 342.047 0.056876 344.75C0.345958 347.425 1.71835 349.951 3.95141 352.462C6.18045 354.969 9.3796 357.588 13.5642 360.465C13.911 360.704 14.304 360.891 14.7077 361.009C40.064 368.461 62.8412 374.905 83.9478 380C71.2692 380.028 61 390.091 61 402.5C61 414.926 71.2974 425 84 425C96.7025 425 107 414.926 107 402.5C107 393.757 101.902 386.178 94.4558 382.454C115.646 387.226 135.225 390.506 154.187 391.921C180.991 393.922 206.536 392.198 233.651 385.743C228.955 389.862 226 395.843 226 402.5C226 414.926 236.297 425 249 425C261.703 425 272 414.926 272 402.5C272 391.462 263.875 382.28 253.156 380.366C260.902 377.948 268.819 375.15 276.967 371.951C277.269 371.833 277.56 371.675 277.82 371.491C287.381 364.737 294.966 359.049 300.762 354.189C306.539 349.346 310.638 345.246 313.141 341.658C315.639 338.078 316.76 334.696 315.944 331.46C315.143 328.279 312.614 325.847 309.321 323.786C308.294 323.144 307.043 323.031 305.945 323.407C276.218 333.585 248.11 339.877 215.491 342.447C217.378 340.906 218.826 338.545 220.131 335.225C220.367 334.625 220.452 333.965 220.375 333.322C219.997 330.194 219.347 327.941 218.219 326.3C217.031 324.572 215.483 323.763 213.92 323.182C213.879 323.167 213.856 323.142 213.846 323.124C213.845 323.121 213.844 323.119 213.843 323.117C217.154 310.172 219.677 299.909 220.484 291.496C221.21 283.91 220.565 277.618 217.72 272.074C218.466 271.22 219.169 270.333 219.832 269.415C225.901 261.01 228.372 250.242 229.139 238.412C229.903 226.631 228.987 213.536 228.062 200.294L228.049 200.117C227.267 188.925 226.481 177.613 226.642 166.704C237.466 166.943 243.746 168.004 250.857 172.528C250.852 172.54 250.843 172.555 250.826 172.57C248.629 174.605 247.041 176.538 246.615 178.639C246.144 180.962 247.177 182.882 248.601 184.553C248.857 184.854 249.166 185.12 249.516 185.331C252.075 186.875 254.675 187.247 257.682 186.788C260.265 186.393 263.214 185.374 266.762 183.984C269.973 186.816 273.536 188.746 277.209 189.672C282.976 191.125 288.909 190.063 293.884 186.272C295.216 185.257 296.198 184.041 296.526 182.583C296.864 181.081 296.424 179.712 295.702 178.604C294.354 176.533 291.7 174.859 289.187 173.587C288.162 173.069 287.098 172.587 286.05 172.148C287.435 170.976 288.624 169.891 289.601 168.879C290.888 167.545 291.91 166.234 292.497 164.912C293.11 163.528 293.273 162.059 292.702 160.606C292.165 159.237 291.082 158.163 289.809 157.27C289.51 157.059 289.178 156.893 288.834 156.779C282.717 154.742 277.373 156.72 268.013 161.969C268.011 161.97 268.009 161.971 268.005 161.972C268.002 161.972 267.999 161.972 267.996 161.972C267.986 161.972 267.977 161.969 267.969 161.964C256.303 154.373 246.464 151.998 227.815 150.05C228.552 144.748 229.68 139.666 231.323 134.88L231.472 134.864L231.619 134.036C231.805 133.52 231.996 133.007 232.194 132.498L231.912 132.389L238.698 94.2472C240.914 93.7423 242.896 91.918 244.647 89.5357C246.5 87.015 248.421 83.4361 250.432 78.754C250.334 81.7403 250.434 84.2478 250.766 86.2171C251.016 87.6992 251.425 89.0583 252.117 90.104C252.858 91.2236 253.986 92.0499 255.48 92.1091C256.828 92.1624 258.106 91.5697 259.229 90.7892C260.385 89.9866 261.606 88.824 262.896 87.3606C264.839 85.1558 267.06 82.1241 269.572 78.2537C270.369 81.5016 271.166 84.1984 272.002 86.277C272.606 87.7786 273.277 89.0811 274.066 90.0531C274.854 91.0228 275.946 91.8844 277.386 91.9826C278.816 92.08 280.033 91.386 280.987 90.5232C281.949 89.6534 282.87 88.4146 283.779 86.9096C285.294 84.4019 286.953 80.8559 288.815 76.2689C290.281 80.1026 291.783 83.1997 293.353 85.4687C295.256 88.2203 297.627 90.2694 300.561 90.166C303.427 90.065 305.838 87.927 307.901 84.973C309.914 82.092 311.927 77.9638 313.983 72.6303C318.7 71.1879 322.624 68.9069 326.354 65.5245C327.563 64.4274 327.96 62.6882 327.338 61.1739C325.019 55.5246 321.663 51.3968 315.845 48.0863C310.153 44.8479 302.145 42.4169 290.596 39.9289L290.478 39.9035L290.358 39.8924C260.049 37.107 242.333 35.7886 210.681 35.4759L210.679 35.4758L210.677 35.4749C210.675 35.4738 210.672 35.4718 210.669 35.4684C210.664 35.4637 210.661 35.4578 210.661 35.4578L210.661 35.4563L210.661 35.4537C210.712 25.685 210.112 20.4871 208.181 15.8728C207.123 13.3426 203.964 12.8352 202.069 14.5701C201.105 15.4519 200.193 16.3332 199.241 17.2536L199.239 17.2558L199.238 17.2565C196.34 20.0573 193.067 23.22 186.837 27.8573L186.836 27.8576C186.833 27.8582 186.829 27.8586 186.829 27.8586L186.827 27.8586C158.178 23.7985 141.018 22.6014 110.441 22.3932C110.438 22.3932 110.429 22.3923 110.417 22.3838C110.406 22.3753 110.401 22.3669 110.4 22.3625C109.706 20.4096 108.3 16.6071 106.479 12.5001C104.876 8.8849 102.917 4.95601 100.803 1.83665C100.397 1.23703 99.7636 0.685709 98.9563 0.43614C98.0707 0.162373 96.9751 0.276718 96.1194 1.08904C95.1715 1.98902 94.4488 3.40526 93.8342 5.03959ZM101.334 10.9127C100.334 8.85614 99.2612 6.85232 98.1557 5.09751C97.9804 5.45017 97.7863 5.89409 97.5783 6.44746C97.1942 7.46889 96.7999 8.75796 96.3956 10.3396L101.334 10.9127ZM207.187 347.022C206.898 349.839 206.434 352.277 205.642 354.353L206.003 354.534L208.46 351.831C210.079 350.051 212.891 350.092 214.457 351.919L214.966 352.513L219.675 350.158C220.801 349.595 222.127 349.595 223.253 350.158L229.359 353.211L227.57 356.789L221.464 353.736L216.755 356.091C215.114 356.911 213.124 356.51 211.929 355.116L211.42 354.522L208.963 357.224C207.758 358.55 205.817 358.913 204.215 358.111L203.714 357.861C202.249 359.758 200.274 361.133 197.684 362.113C196.561 362.538 195.323 362.399 194.331 361.793C193.28 361.152 192.332 360.486 191.486 359.777L190.916 360.703L185.682 357.482L183.047 359.825C182.098 360.668 180.807 361.011 179.565 360.749L171.645 359.082L167.887 360.585C167.009 360.936 166.034 360.965 165.137 360.666L154.509 357.123L145.64 360.502C144.431 360.963 143.073 360.81 141.997 360.092L137.73 357.248L129.641 360.483C128.466 360.953 127.137 360.839 126.059 360.176L121.187 357.178L117.333 358.364C117.128 358.536 116.919 358.702 116.706 358.86C113.822 360.997 110.381 361.627 106.182 361.767L105.439 361.792L104.86 361.325C101.668 358.75 99.9536 356.175 99.6718 353.034C99.4409 350.459 100.218 347.749 101.287 344.797C100.789 344.303 100.321 343.823 99.8835 343.353C73.909 340.829 44.8112 337.239 11.6044 332.609C8.81969 335.118 6.80732 337.272 5.54671 339.234C4.30373 341.168 3.86865 342.793 4.03372 344.32C4.20181 345.875 5.02646 347.652 6.94063 349.804C8.85848 351.961 11.756 354.368 15.8281 357.168L15.833 357.17L15.8381 357.172C71.6072 373.561 114.5 384.947 154.484 387.932C194.388 390.911 231.451 385.524 275.503 368.229L275.506 368.228L275.507 368.227L275.512 368.224C285.037 361.496 292.519 355.88 298.193 351.124C303.887 346.35 307.663 342.519 309.861 339.369C312.064 336.21 312.471 334.047 312.066 332.437C311.647 330.777 310.213 329.068 307.229 327.196C274.626 338.357 243.893 344.903 207.187 347.022ZM115.304 354.803L114.376 355.088L114.505 355.508C114.469 355.537 114.433 355.564 114.397 355.592C114.373 355.61 114.349 355.628 114.324 355.646C112.554 356.958 110.309 357.557 106.803 357.738C104.536 355.776 103.795 354.223 103.656 352.677C103.487 350.797 104.148 348.533 105.488 344.972L105.954 343.732L104.993 342.819C101.377 339.381 99.8175 337.135 99.2606 335.316C98.7449 333.632 99.0021 332.027 99.9695 329.519C100.542 328.174 101.113 327.377 101.643 326.898C102.145 326.443 102.692 326.198 103.387 326.093C104.13 325.981 105.064 326.028 106.306 326.239C107.522 326.445 108.894 326.782 110.536 327.185L112.494 327.666L113.034 325.834C116.786 313.115 118.331 303.356 117.748 293.992C117.165 284.628 114.462 275.817 109.962 265L106.269 266.536C108.982 273.058 110.977 278.713 112.24 284.12C105.24 282.235 101.556 279.679 100.102 277.776C94.8941 270.961 91.8235 263.481 89.5079 251.492C88.7643 247.641 87.5083 243.104 86.0812 238.094C85.8836 237.4 85.6825 236.697 85.4786 235.984C84.2023 231.518 82.8187 226.678 81.5145 221.516C78.5308 209.706 75.994 196.328 76.1914 182.362C80.0817 181.478 84.6462 181.073 90.4586 180.975L90.3911 176.975C82.6536 177.106 76.7102 177.768 71.5203 179.52C66.2878 181.287 61.9526 184.115 57.3486 188.374C55.3115 190.258 55.905 193.332 57.9163 194.701C60.324 196.34 61.7316 197.896 62.3716 199.464C62.9762 200.946 63.008 202.717 62.0665 205.088C60.2637 206.074 58.9484 206.382 57.5261 206.141C55.9713 205.877 53.9946 204.91 51.0174 202.636C49.2737 201.304 46.7522 201.574 45.3534 203.31C42.7291 206.566 40.6937 208.539 38.7145 209.708C36.8208 210.827 34.8513 211.284 32.1933 211.234C31.2824 210.573 30.6838 209.909 30.2872 209.207C29.883 208.492 29.6312 207.637 29.556 206.528C29.3989 204.212 30.0157 201.04 31.3596 196.303C31.7002 195.103 31.4648 193.813 30.7252 192.81C27.5997 188.574 25.9127 185.734 25.4457 183.526C25.229 182.501 25.2909 181.666 25.5816 180.89C25.8812 180.09 26.4776 179.211 27.5525 178.201C29.6009 176.948 31.4304 176.495 33.8259 176.812C36.3769 177.149 39.6338 178.367 44.4541 180.744C45.7775 181.397 47.3606 181.274 48.5674 180.419C64.0831 169.43 74.396 164.516 94.8627 158.069L93.6609 154.254C88.1339 155.995 83.3201 157.632 78.9322 159.31C79.1621 154.531 79.4447 152.703 79.8679 150.571C79.9388 150.214 80.0139 149.847 80.0936 149.458L80.0944 149.454C80.5584 147.189 81.1761 144.173 82.0178 137.883C140.42 140.693 173.422 140.705 226.967 135.324C224.508 143.133 223.311 151.539 222.855 160.2C222.166 173.3 223.128 187.083 224.059 200.396L224.059 200.399C224.994 213.77 225.894 226.642 225.147 238.153C224.401 249.668 222.018 259.556 216.589 267.074C211.214 274.518 202.667 279.889 189.037 282.029C165.098 285.786 147.753 286.132 134.679 285.854C133.813 281.012 132.435 275.858 130.511 270.131L126.72 271.405C130.749 283.403 132.229 292.535 131.69 301.486C131.149 310.468 128.568 319.415 124.241 331.072L123.46 333.175L125.638 333.71C128.456 334.403 130.594 335.084 132.196 335.794C133.803 336.507 134.758 337.2 135.325 337.858C136.285 338.973 136.526 340.468 135.736 343.549C135.202 344.559 134.634 345.21 134.039 345.647C133.413 346.108 132.642 346.417 131.609 346.574C129.416 346.909 126.416 346.53 121.94 345.795L120.343 345.533L119.753 347.039C118.238 350.911 116.834 353.288 115.304 354.803ZM121.348 353.181C122.026 353.208 122.693 353.408 123.283 353.771L128.155 356.769L136.244 353.534C137.467 353.045 138.853 353.189 139.949 353.919L144.216 356.764L153.085 353.385C153.948 353.056 154.898 353.036 155.774 353.328L166.402 356.871L170.159 355.368C170.892 355.075 171.696 355.005 172.469 355.168L180.389 356.835L183.024 354.493C184.189 353.458 185.831 353.204 187.234 353.796C186.602 351.983 186.339 349.983 186.339 347.742C171.83 347.928 156.31 347.511 139.381 346.503L139.468 345.036L139.402 345.168C138.625 346.71 137.655 347.954 136.409 348.87C135.158 349.789 133.745 350.295 132.212 350.529C129.637 350.921 126.507 350.566 122.868 349.996C122.376 351.151 121.874 352.212 121.348 353.181ZM140.035 342.534C156.832 343.526 172.21 343.931 186.568 343.739C186.59 343.529 186.613 343.317 186.637 343.103C186.638 343.094 186.64 343.073 186.624 343.029C186.606 342.981 186.567 342.907 186.49 342.821C186.324 342.635 186.077 342.499 185.856 342.46C183.063 341.963 180.078 340.513 177.692 338.809C176.487 337.948 175.381 336.985 174.498 335.984C173.635 335.008 172.879 333.879 172.541 332.678C172.309 331.851 172.461 331.088 172.644 330.569C174.939 324.073 177.492 320.193 181.072 318.651C184.62 317.122 188.523 318.209 192.442 319.552L192.446 319.553L192.451 319.554C192.453 319.555 192.454 319.555 192.456 319.555C192.458 319.554 192.459 319.554 192.461 319.554L192.464 319.553C195.435 310.9 197.085 304.484 197.769 298.608C198.326 293.82 198.249 289.333 197.678 284.224C195.188 284.943 192.518 285.531 189.658 285.98C165.853 289.717 148.458 290.121 135.288 289.867C135.793 293.942 135.917 297.838 135.683 301.726C135.139 310.744 132.673 319.592 128.753 330.39C130.719 330.937 132.401 331.51 133.817 332.137C135.721 332.982 137.259 333.975 138.355 335.248C140.192 337.38 140.455 339.869 140.035 342.534ZM214.735 275.111C211.165 278.338 206.815 280.976 201.556 282.943C202.238 288.617 202.374 293.647 201.742 299.07C201.011 305.354 199.26 312.078 196.245 320.86C195.516 322.982 193.208 324.043 191.145 323.336C187.057 321.935 184.6 321.486 182.654 322.324C180.752 323.144 178.69 325.507 176.457 331.785C176.608 332.167 176.931 332.697 177.495 333.336C178.139 334.065 179.005 334.831 180.017 335.554C182.066 337.017 184.504 338.157 186.557 338.522C187.689 338.723 188.73 339.324 189.473 340.156C190.222 340.994 190.768 342.191 190.611 343.557C190.124 347.822 190.289 350.656 191.135 352.813C191.944 354.877 193.483 356.578 196.352 358.34C199.082 357.29 200.631 355.811 201.64 353.565C202.733 351.134 203.244 347.698 203.499 342.622C203.54 341.81 203.574 340.961 203.604 340.072L207.602 340.206L207.594 340.427C207.59 340.539 207.586 340.651 207.582 340.762C209.618 340.748 210.999 340.527 212.133 339.908C213.533 339.144 214.914 337.556 216.401 333.781C216.051 330.889 215.502 329.409 214.923 328.566C214.4 327.806 213.73 327.379 212.525 326.931C210.643 326.23 209.434 324.214 209.967 322.129C213.299 309.102 215.731 299.159 216.502 291.114C217.128 284.581 216.637 279.476 214.735 275.111ZM68.209 239.504C73.1194 240.861 77.4237 240.612 82.2197 239.139L82.2342 239.19C83.6479 244.153 84.8405 248.472 85.55 252.093C81.2429 252.078 77.9762 252.509 75.3108 253.497C72.5296 254.529 70.5386 256.116 68.752 258.133C68.6712 257.725 68.6809 257.368 68.7442 257.029C68.8938 256.228 69.3958 255.24 70.5214 253.796C72.0178 251.876 70.7628 248.857 68.136 248.857C61.8914 248.857 57.5508 248.461 51.9356 247.342C53.8124 246.659 56.435 246.251 60.4119 246.022C62.1079 245.924 63.0404 244.593 63.2403 243.445C63.4394 242.302 63.0197 240.755 61.4988 240.065C56.9214 237.989 54.8761 236.326 53.8919 234.905C53.2581 233.99 52.9835 233.068 52.8526 231.881C58.9394 235.766 63.7789 238.279 68.209 239.504ZM82.0306 105.887C82.4175 87.5171 83.4459 71.8121 84.9871 58.5508C85.0729 57.8124 85.1604 57.0815 85.2493 56.3582C87.6096 37.1715 91.0617 23.3918 95.1378 14.2205L103.279 15.1652C104.823 18.7395 106.015 21.9687 106.63 23.7009C107.198 25.2997 108.714 26.3816 110.414 26.3931C140.827 26.6002 157.808 27.786 186.267 31.8192C187.299 31.9654 188.369 31.703 189.22 31.07C195.679 26.2623 199.179 22.8794 202.1 20.0562L202.101 20.0553L202.102 20.0542C202.964 19.2207 203.776 18.436 204.598 17.6778C206.118 21.4452 206.711 25.9604 206.661 35.4325C206.649 37.6395 208.429 39.4538 210.641 39.4757C241.208 39.7777 258.685 41.0189 287.325 43.6314C285.384 48.6319 284.108 52.8096 283.358 56.9812C282.585 61.2805 282.383 65.5059 282.539 70.5411C279.679 70.674 276.857 70.8059 274.074 70.9361L252.644 71.9221C251.798 71.9596 250.957 71.9967 250.12 72.0334L250.116 72.0336L227.888 72.9075L227.882 72.9077C221.351 73.1249 215.139 73.2859 209.247 73.3715C200.368 73.5004 192.225 73.4577 184.824 73.1784C177.039 72.8845 170.092 72.3296 163.985 71.4421C157.412 70.487 151.856 69.1532 147.293 67.3716C142.541 65.5162 138.929 63.2 136.356 60.3798C135.371 59.3004 133.96 58.8386 132.656 58.979C131.319 59.1229 129.953 59.9321 129.37 61.485C127.976 65.1985 127.494 68.3411 128.023 71.3994C128.546 74.4287 130.022 77.1413 132.088 80.0494C132.791 81.0398 133.957 81.7018 135.267 81.6829C138.149 81.6415 140.532 80.8512 142.691 78.8403C143.287 78.2848 143.857 77.6437 144.414 76.9153C144.541 77.8715 144.743 78.7622 145.032 79.5968C146.041 82.5134 148.01 84.4794 150.795 86.2009C151.421 86.5883 152.156 86.7938 152.911 86.7728C155.977 86.6872 158.484 85.8597 160.597 83.6336C161.12 83.0819 161.609 82.4542 162.074 81.7492C162.167 82.1951 162.276 82.6326 162.402 83.0632C163.236 85.9204 164.755 88.3129 167.073 90.8386C168.011 91.8611 169.438 92.3157 170.808 91.9944C174.123 91.2176 176.765 89.9568 179.103 87.597C180.539 86.1466 181.815 84.3253 183.069 82.0565L183.082 82.1388L183.095 82.2201C183.404 84.1804 183.959 85.9052 184.959 87.2715C187.114 90.2164 190.634 90.6599 194.779 90.193C194.974 90.1711 195.174 90.1335 195.37 90.0797C200.967 88.5451 205.003 85.2336 208.055 81.1137C208.37 82.2973 208.794 83.3562 209.371 84.2994C210.804 86.6449 212.986 87.9854 215.822 88.9751C216.47 89.2011 217.175 89.2528 217.86 89.1104C221.036 88.4505 223.388 87.1207 225.293 84.7718C226.124 83.7479 226.852 82.5495 227.533 81.1763C228.372 83.9774 229.276 86.3852 230.259 88.332C231.411 90.6153 232.861 92.6437 234.737 93.673L231.89 109.68L231.754 109.685L231.483 109.695L231.201 109.705L229.665 109.764C228.753 109.799 227.607 109.843 226.249 109.894C222.516 110.034 217.186 110.226 210.745 110.425C197.862 110.824 180.54 111.25 162.676 111.346C144.805 111.443 126.423 111.209 111.408 110.291C103.898 109.831 97.2675 109.203 91.981 108.367C87.4364 107.648 84.0893 106.803 82.0306 105.887ZM287.295 57.6889C288.027 53.619 289.314 49.462 291.399 44.1988C301.978 46.545 308.994 48.7905 313.867 51.563C318.835 54.3898 321.607 57.7827 323.606 62.6163C320.136 65.7497 316.547 67.7626 312.125 69.0071L289.584 70.6412C289.127 70.627 288.664 70.6113 288.194 70.5943C287.651 70.5746 287.1 70.5531 286.541 70.5299C286.384 65.6241 286.58 61.664 287.295 57.6889ZM292.402 74.4474L309.45 73.2116C307.743 77.3903 306.134 80.5182 304.622 82.6822C302.71 85.4187 301.291 86.1378 300.42 86.1685C299.617 86.1968 298.343 85.6524 296.642 83.1933C295.272 81.2118 293.857 78.3098 292.402 74.4474ZM284.615 74.4491C284.819 74.4585 285.023 74.4678 285.225 74.4768C283.347 79.1268 281.745 82.5416 280.355 84.8408C279.533 86.2014 278.848 87.064 278.304 87.5565C277.938 87.8871 277.731 87.9679 277.661 87.9866C277.599 87.9576 277.434 87.8554 277.172 87.5318C276.748 87.01 276.254 86.1297 275.713 84.7847C274.796 82.5044 273.881 79.242 272.911 74.9948L274.257 74.9319C277.653 74.7731 281.105 74.6116 284.615 74.4491ZM277.686 87.9958C277.684 87.9954 277.682 87.9949 277.68 87.9945C277.683 87.9955 277.685 87.9961 277.687 87.9965C277.689 87.997 277.69 87.9971 277.69 87.9971C277.69 87.9971 277.688 87.9965 277.686 87.9958ZM254.59 75.837L266.729 75.2804C264.062 79.4464 261.791 82.564 259.895 84.716C258.715 86.0552 257.734 86.9572 256.947 87.5043C256.128 88.0735 255.723 88.1156 255.639 88.1122L255.637 88.1121C255.616 88.0972 255.549 88.0421 255.452 87.896C255.207 87.5253 254.921 86.7997 254.711 85.5523C254.342 83.3669 254.291 80.1333 254.59 75.837ZM230.476 76.8088L247.19 76.1516C245.077 81.209 243.154 84.8136 241.424 87.1667C239.29 90.071 237.916 90.46 237.267 90.3737C236.534 90.2764 235.301 89.4441 233.83 86.5298C232.651 84.1943 231.53 80.9326 230.476 76.8088ZM211.44 77.337C215.8 77.2616 220.326 77.1474 225.016 77.0019C224.059 79.3563 223.179 81.029 222.187 82.2519C220.946 83.7808 219.466 84.6828 217.097 85.1833C214.751 84.3587 213.544 83.4573 212.784 82.2135C212.134 81.1494 211.695 79.6544 211.44 77.337ZM186.739 77.2469C192.649 77.4325 198.993 77.4775 205.763 77.4136C202.977 81.652 199.381 84.8291 194.324 86.219C190.464 86.6526 188.983 85.9965 188.187 84.9095C187.712 84.2595 187.305 83.2348 187.046 81.596C186.858 80.4058 186.759 78.9706 186.739 77.2469ZM165.605 75.7012C170.354 76.3136 175.536 76.7426 181.139 77.0214C179.38 80.7583 177.872 83.155 176.261 84.7822C174.588 86.4707 172.7 87.4329 169.972 88.0818C167.966 85.886 166.851 84.0298 166.242 81.9426C165.745 80.2392 165.554 78.2797 165.605 75.7012ZM148.317 71.9949C152.064 73.2514 156.286 74.2448 160.962 75.0204C159.809 77.9224 158.781 79.7361 157.695 80.88C156.501 82.1384 155.124 82.7008 152.856 82.7726C150.577 81.3563 149.416 80.0366 148.812 78.2891C148.298 76.8041 148.127 74.8493 148.317 71.9949ZM139.964 75.9136C141.161 74.7986 142.37 73.0352 143.818 70.2553C139.586 68.372 136.085 66.0168 133.401 63.076C133.364 63.0351 133.315 63.0016 133.254 62.9795C133.194 62.9574 133.135 62.9517 133.091 62.9554C131.872 66.2221 131.598 68.5996 131.964 70.7184C132.335 72.8665 133.403 74.9855 135.312 77.6815C137.306 77.6367 138.663 77.1255 139.964 75.9136ZM229.889 113.758L231.173 113.709L229.687 122.06L216.17 117.844C213.776 117.097 211.294 118.711 211.005 121.201L210.655 124.223C210.356 126.797 212.547 128.972 215.118 128.654L228.815 126.962L228.062 131.193C173.8 136.708 140.92 136.717 81.9419 133.874L81.9395 133.874L81.9384 133.874L81.9359 133.873C81.9345 133.873 81.9329 133.872 81.9312 133.87L81.9289 133.869L81.927 133.867C81.8271 125.529 81.8385 117.628 81.9531 110.151C84.4542 111.033 87.6767 111.736 91.3561 112.318C96.8214 113.182 103.594 113.82 111.164 114.283C126.31 115.21 144.795 115.443 162.698 115.346C180.607 115.25 197.966 114.822 210.869 114.423C217.321 114.224 222.66 114.032 226.399 113.891C227.793 113.839 228.966 113.794 229.889 113.758ZM214.979 121.662L221.819 123.796L214.628 124.684L214.979 121.662ZM226.849 160.41C226.963 158.253 227.123 156.122 227.338 154.022C245.789 155.947 254.892 158.227 265.788 165.317C267.041 166.132 268.653 166.196 269.969 165.458C279.371 160.186 283.268 159.153 287.539 160.563C288.488 161.235 288.851 161.742 288.979 162.069C289.076 162.315 289.122 162.655 288.84 163.29C288.532 163.986 287.881 164.901 286.723 166.101C285.582 167.284 284.044 168.646 282.078 170.247C281.969 170.336 281.859 170.425 281.747 170.516L281.596 170.464L281.51 170.434C280.408 170.058 279.465 169.763 278.796 169.561C278.461 169.461 278.194 169.383 278.009 169.33C277.917 169.303 277.845 169.283 277.795 169.269L277.738 169.253L277.715 169.247C277.715 169.247 277.714 169.247 277.186 171.176C276.658 173.105 276.658 173.105 276.658 173.105L276.671 173.108L276.717 173.121L276.765 173.135C276.803 173.145 276.851 173.159 276.908 173.175C277.076 173.223 277.325 173.296 277.641 173.391C278.273 173.582 279.169 173.862 280.218 174.22C280.788 174.414 281.399 174.63 282.034 174.865L282.29 175.193L282.49 175.036C284.083 175.639 285.798 176.356 287.381 177.157C289.858 178.41 291.634 179.686 292.35 180.786C292.661 181.264 292.662 181.536 292.624 181.704C292.576 181.917 292.364 182.401 291.459 183.09C287.488 186.117 282.815 186.959 278.186 185.793C273.525 184.619 268.806 181.373 264.977 176.047L261.729 178.383C262.359 179.259 263.016 180.091 263.695 180.878C260.973 181.901 258.864 182.561 257.078 182.834C254.855 183.173 253.239 182.894 251.62 181.929C250.53 180.641 250.427 179.967 250.535 179.434C250.689 178.675 251.401 177.489 253.543 175.506C255.344 173.839 255.412 170.69 253.067 169.193C245.02 164.055 237.841 162.948 226.746 162.705C226.775 161.938 226.809 161.173 226.849 160.41ZM101.25 402.5C101.25 411.254 93.8821 419 84 419C74.1179 419 66.75 411.254 66.75 402.5C66.75 393.746 74.1179 386 84 386C93.8821 386 101.25 393.746 101.25 402.5ZM249 419C258.882 419 266.25 411.254 266.25 402.5C266.25 393.746 258.882 386 249 386C239.118 386 231.75 393.746 231.75 402.5C231.75 411.254 239.118 419 249 419Z" fill="black"/>
</svg>
